
Release info:

General
Format                                   : Matroska
Format version                           : Version 2
File size                                : 691 MiB
Duration                                 : 1h 56mn
Overall bit rate mode                    : Variable
Overall bit rate                         : 831 Kbps
Movie name                               : [18+] The Bhoot Of Rose Ville VCDRip Bengali Movie

Video
ID                                       : 1
Format                                   : MPEG-4 Visual
Format profile                           : Advanced Simple@L5
Format settings, BVOP                    : Yes
Format settings, QPel                    : No
Format settings, GMC                     : No warppoints
Format settings, Matrix                  : Custom
Codec ID                                 : V_MS/VFW/FOURCC / XVID
Codec ID/Hint                            : XviD
Duration                                 : 1h 56mn
Bit rate                                 : 711 Kbps
Width                                    : 608 pixels
Height                                   : 256 pixels
Display aspect ratio                     : 2.40:1
Frame rate mode                          : Constant
Frame rate                               : 23.976 fps
Color space                              : YUV
Chroma subsampling                       : 4:2:0
Bit depth                                : 8 bits
Scan type                                : Progressive
Compression mode                         : Lossy
Bits/(Pixel*Frame)                       : 0.191
Stream size                              : 592 MiB (86%)
Title                                    : [18+] The Bhoot Of Rose Ville VCDRip Bengali Movie
Language                                 : Bengali
Default                                  : Yes
Forced                                   : No

Audio
ID                                       : 2
Format                                   : MPEG Audio
Format version                           : Version 1
Format profile                           : Layer 3
Mode                                     : Joint stereo
Mode extension                           : MS Stereo
Muxing mode                              : Header stripping
Codec ID                                 : A_MPEG/L3
Codec ID/Hint                            : MP3
Duration                                 : 1h 56mn
Bit rate mode                            : Variable
Bit rate                                 : 103 Kbps
Nominal bit rate                         : 128 Kbps
Channel(s)                               : 2 channels
Sampling rate                            : 48.0 KHz
Compression mode                         : Lossy
Stream size                              : 85.9 MiB (12%)
Title                                    : [18+] The Bhoot Of Rose Ville VCDRip Bengali Movie
Language                                 : Bengali
Default                                  : Yes
Forced                                   : No



Source:
credit to original movie ripper HancocK (Thanks)

Movie Info:

Cast: Arpita Mukherjee, Dron Mukherjee, Souradeep Ghosh, Satrajit Majumder, Debapriya Roy and others
Direction: Sanghamitra Chaudhuri
Genre: Thriller

Movie Review :This psychological thriller doesn't exactly give you the goosebumps but it doesn't make you want to leave your seats either. While on the one hand, you wish your two-hours of cinematic experience got a bit more spookier, on the other, you feel that the film-maker deserves some credit for attempting to tell an 'unnatural' tale under such natural circumstances.....

Screen Shot:
 
http://www.shotpix.com/images/94079194020686373675.png 
http://www.shotpix.com/images/78019207857973020579.png 
http://www.shotpix.com/images/35252257096765470016.png 
http://www.shotpix.com/images/81527482980738957690.png 
http://www.shotpix.com/images/07292791655192438023.png 
http://www.shotpix.com/images/32226939913768782359.png